<svg xmlns="http://www.w3.org/2000/svg" viewBox="0 0 61 61"><defs><style>.cls-1,.cls-2{fill:none;stroke:#c1c1c1;stroke-miterlimit:10;}.cls-2{stroke-width:0.5px;}</style></defs><title>Asset 14</title><g id="Layer_2" data-name="Layer 2"><g id="Layer_1-2" data-name="Layer 1"><g id="Layer_2-2" data-name="Layer 2"><g id="Layer_1-2-2" data-name="Layer 1-2"><path class="cls-1" d="M11.21,41.65a4.86,4.86,0,0,0,2,.47h2s1.87,5.62,4.52,5.62c.45,0,0,1.36,0,1.36a3.31,3.31,0,0,0,1.57.62c.23,0,.21.62,1.58.62.22,0,0,.62.9.62.22,0,0,.6,1.36.6.45,0,.9,1.7,2.25.46l.45-.3s.45,1.07.9.77a3.21,3.21,0,0,0,.77-.48.83.83,0,0,0,.68.44c.45,0,.22-.59.92-.44s1.12.44,1.57-.15.23.59,1.13.44a1.08,1.08,0,0,0,.9-1.06s.67.92,1.35.92,1.35,0,1.35-1.39c0,0,1.14,0,1.14-.45,0-.15.68.3.9-.15a.57.57,0,0,1,.68-.32,2.55,2.55,0,0,0,.9-.62c.45-.45,0-.45,0-.45a1.65,1.65,0,0,0,.9-.31c.45-.3.45-1.54.45-1.54s4.29-1.52,4.29-5.21c0-.15,2,.15,3.15.15.45,0-.81,6.28-.22,8.3.22.75-1.13,1.69-1.13,1.69s-10.37,8.42-13.76,8.57-7.22,0-7.22,0-12.42-5.82-14.22-10A38.32,38.32,0,0,1,11.21,41.65Z"/><path class="cls-2" d="M20.19,45.84v1.37s.45.47.67.32,0-1.69,0-1.69S20.34,45.69,20.19,45.84Z"/><path class="cls-2" d="M21,46a3.16,3.16,0,0,0,.9.45c.23,0-.22,1.09-.22,1.09s-.68.15-.68,0Z"/><path class="cls-2" d="M22.06,46.61s.9,0,.9.3.23,1.54-.22,1.39-.68-.15-.9-.47S22.06,46.61,22.06,46.61Z"/><path class="cls-2" d="M23.26,47.21s1.15,0,1.15.32a10,10,0,0,1-.47,1.53s-.68,0-.68-.31Z"/><path class="cls-2" d="M24.63,47.68s.9,0,.9.3v1.7s-1.12.15-1.12-.32A16.1,16.1,0,0,1,24.63,47.68Z"/><path class="cls-2" d="M25.81,48s1.35-.15,1.58.17A5.92,5.92,0,0,1,27.61,50s-.45.77-1.12.45-.68-.45-.68-.6S25.53,48,25.81,48Z"/><path class="cls-2" d="M27.56,48.15a3.41,3.41,0,0,1,1.35,0c.45.15.45,2,.45,2s-.45.47-.68.3L28,50A6.37,6.37,0,0,1,27.56,48.15Z"/><path class="cls-2" d="M29.36,48.15h1.35s.22,1.87,0,1.87-.45.45-.45.45-.7-.19-.7-.34S29.36,48.15,29.36,48.15Z"/><path class="cls-2" d="M31.18,48.15h1.35v1.68s-.23.3-.45.3a1.11,1.11,0,0,1-.9-.3C30.93,49.51,31.18,48.15,31.18,48.15Z"/><path class="cls-2" d="M32.75,48.15,34.63,48v1.53s0,.62-.9.62c-.45,0-.9-.77-.9-.77S32.53,48.15,32.75,48.15Z"/><path class="cls-2" d="M34.78,48a3.12,3.12,0,0,1,2,.17c.68.45.23,1.36.23,1.36a.84.84,0,0,1-.68.47,1.48,1.48,0,0,1-.9-.15c-.22-.15-.67-.47-.67-.62S34.55,48,34.78,48Z"/><path class="cls-2" d="M37.06,47.68a2.22,2.22,0,0,1,1.15-.3c.67,0,.22.92.22.92a.3.3,0,0,1-.25.34.34.34,0,0,1-.2,0C37.48,48.45,37.25,48.75,37.06,47.68Z"/><path class="cls-2" d="M38.62,46.91a.91.91,0,0,1,.67-.3c.45,0,.23,1.69-.22,1.69s-.45-.15-.45-.15Z"/><path class="cls-2" d="M39.74,46.39a1.52,1.52,0,0,1,.9-.45c.68-.15.23,1.36.23,1.36a1.52,1.52,0,0,1-.9.47c-.45,0-.23-1.38-.23-1.38"/><path class="cls-2" d="M41.08,45.69a1.79,1.79,0,0,1,.93-.76c.57-.17-.18,1.36-.18,1.36s-.38.47-.57.32S40.89,45.69,41.08,45.69Z"/><path class="cls-2" d="M55.2,33.28c-2,.91-2.48.15-2.48.15V30.88c0-.15-2.49-.47-2.72.15a4.86,4.86,0,0,1-2,2.45c-1.35.92-3.38.62-5.63.32a17.2,17.2,0,0,1-4.74-1.54,17.73,17.73,0,0,1-2.42-2,25.6,25.6,0,0,0-1.88-2,3.86,3.86,0,0,0-2-1.09c-1.88,0-2.72,1.53-3.85,3.39a7.25,7.25,0,0,1-4.06,2.7,22.12,22.12,0,0,1-6.77.76c-2,0-2.7-1.21-4.28-1.68a2.28,2.28,0,0,0-2.49.92,1.66,1.66,0,0,1-.9,1.38c-.9.45-1.58-.15-2.25-.47s-1.13.62-.68,1.39a53.33,53.33,0,0,0,7,4.29,42.22,42.22,0,0,0,4.5,0c.69-.15,2.27,1.53,2.27,1.53s-.45,2.31.22,2.31.45.62.68.47a.56.56,0,0,1,.67,0,.85.85,0,0,1,.23.45h.48c.45,0,.45.31.45.31s0-.16.45-.16.45.46.45.31c0-.56,1.15,0,1.15,0a1.25,1.25,0,0,1,1.12-.31,1.32,1.32,0,0,1,.9.76.76.76,0,0,1,.9-.3,1.52,1.52,0,0,1,.9.47l.68-.47H30c.45,0,1.14.77,1.14.77l.9-.62a1.33,1.33,0,0,1,.68-.15,4,4,0,0,1,1.35.62l.9-.62a1.37,1.37,0,0,1,1.12,0s0-.15.23-.3,0-.16.67-.16.45.46.68.31.91,0,.91-.15c0-.65,1.13-.16,1.13-.31,0-.49,1.12-.3,1.35-.6a1.49,1.49,0,0,1,.67-.47s-.45-.62,0-2.46a2.16,2.16,0,0,1,2.25-1.68s5.42,0,7-.15a2.45,2.45,0,0,0,2-1.09s1.35-1.21,1.35-1.87,1.58-1.69,2-2S56.55,32.56,55.2,33.28ZM28.57,40.77c-4.05-1.22,2-8.73,2-8.73S32.64,42.08,28.57,40.77Zm5.62,0C29.71,42,31.94,32,31.94,32s6.68,7.59,2.2,8.73Z"/><path class="cls-1" d="M41.21,44.23s.22-.32.45-.32.45.47.45.77-.9.47-.9.47Z"/><path class="cls-1" d="M40,44.93a.45.45,0,0,1,.43-.47h0c.45,0,.45,1.23.45,1.23l-.9.15Z"/><path class="cls-2" d="M38.94,45.23s0-.3.22-.3h.45L39.84,46l-.9.4Z"/><path class="cls-2" d="M37.48,45.38s.78-.25,1.14,0,0,1.23,0,1.23-.45.45-.9.3S37.48,45.38,37.48,45.38Z"/><path class="cls-2" d="M36.35,45.53s0-.3.23-.3.67-.15.67.61v1.54a7,7,0,0,1-.9.15C36.13,47.53,36.35,45.53,36.35,45.53Z"/><path class="cls-2" d="M34.33,46.14a3.11,3.11,0,0,1,.9-.61c.45-.15.45.46.45.46v1.54s-.68.45-1.13.15S34.33,46.14,34.33,46.14Z"/><path class="cls-2" d="M31.18,46.39a1.7,1.7,0,0,1,1.12-.45,3.62,3.62,0,0,1,1.13.15l.45.76v.92l-.23.15-2.25.15S30.93,46.76,31.18,46.39Z"/><path class="cls-2" d="M28.46,46a1.54,1.54,0,0,1,.9-.46H30l.45.46a1.27,1.27,0,0,1,.23.62V48H28.46Z"/><path class="cls-2" d="M26.66,46s.22-.46.45-.46.9,0,.9.31V48l-1.35-.15Z"/><path class="cls-2" d="M24.86,45.38s.45-.45.67-.3.68.15.68.76v2l-1.35-.3Z"/><path class="cls-2" d="M23.49,45.53s0-.3.22-.3.7,0,.7.3v1.68l-1.15-.3Z"/><path class="cls-2" d="M22.36,45.23s.68-.3.68,0v1.38l-.23-.22h-.45Z"/><path class="cls-2" d="M21.46,44.93s.45-.17.45.15v1.06h-.45Z"/><path class="cls-1" d="M20.79,44.51s.45-.3.45,0V45.9l-.45-.32Z"/><path class="cls-1" d="M19.66,44.16s.68-.32.68.15v1.22h-.68Z"/><path class="cls-1" d="M5.79,35.64S1.44,31,1.72,29.19a8,8,0,0,1,1.35-3.41s-5.63-8.59-.23-16.72S33.54.5,33.54.5s19,.19,24.82,12.17c5.4,11-1.14,13.21-1.14,13.21a6.06,6.06,0,0,1-.65,8.56l0,0"/><path class="cls-1" d="M10.34,32.81s-3.65-4.53-1.87-5.62,10.39-2.9,12.41-1.69,5.42,3.54,3.4,6.61-9.94,2.61-12,0"/><path class="cls-1" d="M52.72,30.88c1.48-1.87,1.58-4.16,0-5.53S48.26,24,43.91,24.14a8.28,8.28,0,0,0-4,.76A3.8,3.8,0,0,0,38,27.19c-.49,1.25-1.35,3.46.36,5.07S44,34.49,47.9,33.48"/></g></g></g></g></svg>