<svg xmlns="http://www.w3.org/2000/svg" viewBox="0 0 60.75 60.75"><defs><style>.cls-1,.cls-2,.cls-3,.cls-4{fill:none;stroke:#c1c1c1;stroke-miterlimit:10;}.cls-1{stroke-width:0.75px;}.cls-2,.cls-3,.cls-4{stroke-width:0.25px;}.cls-3{stroke-dasharray:1.02 1.02;}.cls-4{stroke-dasharray:0.91 0.91;}</style></defs><title>Asset 12</title><g id="Layer_2" data-name="Layer 2"><g id="Layer_1-2" data-name="Layer 1"><g id="Layer_2-2" data-name="Layer 2"><g id="Layer_1-2-2" data-name="Layer 1-2"><path class="cls-1" d="M11.13,44.44a6.19,6.19,0,0,0,2.1.32h2.08s1.87,4.83,4.63,4.83c.46,0,0,1.18,0,1.18a1.12,1.12,0,0,0,.78.48h1c.45,0,.34.19.68.23a3.74,3.74,0,0,0,.67,0c.3,0,.42.22.7.22s.37-.22.67-.22.38.2.68.22.37-.18.69-.22.79.43,1.35.45a1.52,1.52,0,0,0,1-.45l1,.45a1.38,1.38,0,0,1,.68-.23,1.82,1.82,0,0,1,.33,0,1.57,1.57,0,0,0,1-.45,2.38,2.38,0,0,0,.68.23,2,2,0,0,0,1,0c.19-.1.17-.19.34-.23s.33.19.67.23.56-.25,1-.23l.68.23.67.22h0a1.93,1.93,0,0,1,.34,0h0a1.09,1.09,0,0,0,.36,0c.54-.09.6-.6,1-.65a1,1,0,0,1,.69.2,1.64,1.64,0,0,0,.4.43h0c.09,0,.71.25.91-.11a.66.66,0,0,1,.7-.26,2.75,2.75,0,0,0,.93-.52c.45-.4,0-.4,0-.4h0l.45.23a2.71,2.71,0,0,0,.47-.49,2.08,2.08,0,0,0,.47-1.31s4.41-1.31,4.41-4.44c0-.13,2.06.13,3.24.13.47,0-.84,5.34-.23,7.06.23.66-1.16,1.42-1.16,1.42s-10.66,7.2-14.15,7.33-7.4,0-7.4,0-12.75-5-14.6-8.49A28,28,0,0,1,11.13,44.44Z"/><path class="cls-2" d="M20.37,49v1.12s.47.4.69.26,0-1.38,0-1.38A1.16,1.16,0,0,0,20.37,49Z"/><path class="cls-2" d="M21.21,48.88a3.89,3.89,0,0,0,.94.39c.22,0-.25.88-.25.88s-.69.11-.69,0Z"/><path class="cls-2" d="M22.37,49s.94,0,.94.24.22,1.26-.24,1.14-.7-.13-.92-.37S22.37,49,22.37,49Z"/><path class="cls-2" d="M23.53,49s1.17,0,1.17.27a7.83,7.83,0,0,1-.47,1.25s-.7,0-.7-.26Z"/><path class="cls-2" d="M24.92,48.78s.94,0,.94.26v1.33s-1.16.13-1.16-.26A10,10,0,0,1,24.92,48.78Z"/><path class="cls-2" d="M26.08,48.84s1.39-.13,1.63.11a4.13,4.13,0,0,1,.23,1.52,1,1,0,0,1-1.16.37c-.7-.24-.7-.37-.7-.5S25.86,48.84,26.08,48.84Z"/><path class="cls-2" d="M27.86,49a5.39,5.39,0,0,1,1.39,0c.47.13.47,1.65.47,1.65s-.47.37-.69.24l-.7-.37A6.35,6.35,0,0,1,27.86,49Z"/><path class="cls-2" d="M29.74,49h1.39s.22,1.52,0,1.52-.47.37-.47.37-.7-.13-.7-.24S29.74,49,29.74,49Z"/><path class="cls-2" d="M31.61,49H33v1.42a.81.81,0,0,1-.47.27,1.27,1.27,0,0,1-.92-.27C31.41,50.09,31.61,49,31.61,49Z"/><path class="cls-2" d="M33.26,49l1.88-.11v1.25s0,.51-.92.51c-.47,0-.94-.64-.94-.64S33,49,33.26,49Z"/><path class="cls-2" d="M35.36,49a4.08,4.08,0,0,1,2.08.13c.7.38.23,1.13.23,1.13a.85.85,0,0,1-.7.37,1.88,1.88,0,0,1-.91-.11c-.25-.13-.7-.39-.7-.51S35.12,49,35.36,49Z"/><path class="cls-2" d="M37.67,49.42a2.72,2.72,0,0,1,1.16-.25c.69,0,.22.75.22.75s0,.38-.45.27S37.91,50.37,37.67,49.42Z"/><path class="cls-2" d="M39.3,49.42a1,1,0,0,1,.69-.25c.47,0,.23,1.39-.22,1.39s-.47-.19-.47-.19Z"/><path class="cls-2" d="M40.46,49.34a1.7,1.7,0,0,1,.92-.37c.69-.13.24,1.12.24,1.12a1.77,1.77,0,0,1-.94.4c-.46,0-.22-1.15-.22-1.15"/><path class="cls-2" d="M41.83,49.06a1.84,1.84,0,0,1,1-.56c.58-.13-.19,1.12-.19,1.12s-.37.4-.58.27-.37-.75-.19-.75Z"/><path class="cls-1" d="M58.12,28a6.93,6.93,0,0,1-.42,9.05.69.69,0,0,1-.2.56c-.47.34-2.1,1.5-2.1,2.17s-1.29,2-1.29,2A2.53,2.53,0,0,1,52,43c-1.63.17-7.19.17-7.19.17A2.21,2.21,0,0,0,42.52,45a3.49,3.49,0,0,0,.79,3c-.54-.74-.84-.89-1-.85s-.26.73-.68.85-.82-.4-1-.29-.15.87-.15,1.11h0a1.68,1.68,0,0,0-.86-.84,1.06,1.06,0,0,0-1,.28c-.24.32,0,.9-.19,1.05h0a.75.75,0,0,1-.2-.27c-.17-.48,0-.69-.21-.82a.81.81,0,0,0-.68,0,.73.73,0,0,0-.35.28c-.28.41,0,.92-.1.94s-.18-.19-.58-.94a1.27,1.27,0,0,0-1,0c-.49.26-.22.92-.69,1.11a.92.92,0,0,1-1-.29.48.48,0,0,1,0-.54.94.94,0,0,0-1-.56.81.81,0,0,0-.68.56l-.69.83A1.11,1.11,0,0,0,30,48.5h-.07a1,1,0,0,0-.68.28l-.5,1.16c0-1-.4-1.66-.87-1.72a1,1,0,0,0-.69.28,1.5,1.5,0,0,0-.3,1.27s.24-1.21-.38-1.55a1.27,1.27,0,0,0-1,0c-.24.43-.32.56-.35.56s.18-.41,0-.56-.4,0-.68,0c-.26.27-.5.55-.73.84a.4.4,0,0,0-.09.21h0s.33-1,.15-1.09-.92,1-1.07.88,0-.17,0-.32c.47-.11.73-.37.69-.56s-.43-.3-.69-.28a1.18,1.18,0,0,0-1,.83c.45-.47.53-.94.3-1.11a.71.71,0,0,0-.69,0c-.21.13-.28.45-.52.62h0c-.14,0-.12-.34-.29-.45s-.88.49-1.16.37-.32-.15.58-2.94h0s-1.61-1.87-2.3-1.68a45.08,45.08,0,0,1-4.65,0A54.37,54.37,0,0,1,5.8,39a1.28,1.28,0,0,1-.17-.51c-.84-1-4.14-4.92-4-6.79A9.28,9.28,0,0,1,3,27.9s-5.73-9.36-.22-18.16S34,.38,34,.38c11.79,0,21.91,5.37,25.22,13.1A16.59,16.59,0,0,1,58.12,28Z"/><path class="cls-2" d="M41.85,47s.24-.4.47-.4.46.6.46,1-.93.58-.93.58Z"/><path class="cls-2" d="M40.48,47.3s0-.52.47-.52.47,1.38.47,1.38l-.94.19Z"/><path class="cls-2" d="M38.47,47.11a2.32,2.32,0,0,1,1.17,0c.22.15,0,1.13,0,1.13a1.08,1.08,0,0,1-.92.28C38.25,48.39,38.47,47.11,38.47,47.11Z"/><path class="cls-2" d="M36.84,47.41a.22.22,0,0,1,.23-.22h0c.22,0,.69-.09.69.43v1.05s-.69.09-.92.09S36.84,47.41,36.84,47.41Z"/><path class="cls-2" d="M33.6,47.6a9.15,9.15,0,0,1,1.63-.37c.83,0,.83.28.83.28v1a6.15,6.15,0,0,1-2.05.09.57.57,0,0,1-.58-.57A.59.59,0,0,1,33.6,47.6Z"/><path class="cls-2" d="M31.5,47.6a1.16,1.16,0,0,1,.77-.32,3.14,3.14,0,0,1,.75,0l.32.55v.67l-.15.11-1.54.1S31.35,47.92,31.5,47.6Z"/><path class="cls-2" d="M29.21,47.73a.91.91,0,0,1,.49-.22h.36l.26.22a.64.64,0,0,1,.11.3v.7H29.21Z"/><path class="cls-2" d="M27,47.6s.25-.32.47-.32.94,0,.94.23V49L27,48.88Z"/><path class="cls-2" d="M25.5,47.28s.45-.31.7-.2.69.09.69.52V49l-1.39-.21Z"/><path class="cls-2" d="M24.12,47.51s-.1-.25.13-.28.67-.1.77.15l.48,1.36-1.22-.09Z"/><path class="cls-2" d="M23.1,47.38s.7-.15.7.15v1h-.7Z"/><path class="cls-2" d="M22.07,47.23s.7-.3.7,0V48.5l-.7-.3Z"/><path class="cls-2" d="M19.52,47s1.33-.3,1.33.14v1.24H19.52Z"/><path class="cls-2" d="M20.89,47s1.33-.3,1.33.14v1.24H20.89Z"/><path class="cls-1" d="M5.78,38.73s12.86,1.55,19.09.69,13.58.86,31.47-.64"/><path class="cls-2" d="M2.3,29l.9-.3"/><path class="cls-3" d="M5,28.07a86.83,86.83,0,0,1,10.79-2.58,80.84,80.84,0,0,1,31.23,0,68.26,68.26,0,0,1,9.69,2.79"/><path class="cls-2" d="M57.63,28.61l.88.36"/><line class="cls-2" x1="31.61" y1="22.49" x2="31.56" y2="21.55"/><line class="cls-4" x1="31.46" y1="19.85" x2="30.51" y2="3.67"/><line class="cls-2" x1="30.45" y1="2.83" x2="30.39" y2="1.89"/></g></g></g></g></svg>