<svg xmlns="http://www.w3.org/2000/svg" viewBox="0 0 61 61"><defs><style>.cls-1,.cls-2,.cls-3{fill:none;stroke:#d1d1d1;stroke-miterlimit:10;}.cls-2{stroke-width:0.25px;}.cls-3{stroke-width:0.75px;}</style></defs><title>Asset 13</title><g id="Layer_2" data-name="Layer 2"><g id="Layer_1-2" data-name="Layer 1"><g id="Layer_2-2" data-name="Layer 2"><g id="Layer_1-2-2" data-name="Layer 1-2"><path class="cls-1" d="M34.25,38.94s-3.54,8.38-3.54,10.78S31.89,59.3,26,59.3,4.63,60.5,4.63,60.5s-5.95-1.2-3.57-6a26.36,26.36,0,0,1,3.57-6l11.81,1.2H18.8l-1.18-6L3.39,42.54l-1.18-4.8s3-.68,3-3a15,15,0,0,0-2.36-6l2.36-3.58v-6s7.14-16.76,16.61-18S39.59,0,45.52,3.62,52.63,7.22,57.37,18s3.56,16.87,0,20.36-1.18,3.6-5.93,4.8-5.92,0-5.92,0-3.56,3.58-7.11,1.2,1.18-2.4,0-4.8S34.25,38.94,34.25,38.94Z"/><path class="cls-1" d="M6.63,28.76s2.46,3.6,3.75,1.2-2.51-9.58-2.51-9.58Z"/><polygon class="cls-2" points="12.37 43.87 13.79 43.95 14.26 46.06 12.97 45.97 12.37 43.87"/><polygon class="cls-2" points="13.74 43.87 15.14 43.95 15.61 46.06 14.32 45.97 13.74 43.87"/><polygon class="cls-2" points="15.46 44.02 16.64 44.19 17.17 46.44 16.08 46.25 15.46 44.02"/><polygon class="cls-2" points="9.59 43.14 11.04 43.27 11.56 45.63 10.25 45.48 9.59 43.14"/><polygon class="cls-3" points="16.81 44.02 17.99 44.19 18.52 46.44 17.43 46.25 16.81 44.02"/><polygon class="cls-2" points="5.17 42.99 6.59 43.06 7.06 45.2 5.77 45.11 5.17 42.99"/><polygon class="cls-2" points="3.37 42.56 4.79 42.63 5.26 44.75 3.95 44.66 3.37 42.56"/><polygon class="cls-2" points="6.56 43.12 7.98 43.21 8.49 45.46 7.17 45.35 6.56 43.12"/><polygon class="cls-2" points="8.32 43.42 9.74 43.49 10.21 45.63 8.92 45.54 8.32 43.42"/><polygon class="cls-2" points="10.94 43.59 12.14 43.76 12.67 45.99 11.58 45.82 10.94 43.59"/><polygon class="cls-2" points="12.37 46.93 13.79 47 14.26 49.14 12.97 49.05 12.37 46.93"/><polygon class="cls-2" points="13.74 46.93 15.14 47 15.61 49.14 14.32 49.05 13.74 46.93"/><polygon class="cls-3" points="15.46 47.08 16.64 47.24 17.17 49.49 16.08 49.33 15.46 47.08"/><polygon class="cls-2" points="9.59 46.21 11.04 46.34 11.56 48.69 10.25 48.56 9.59 46.21"/><polygon class="cls-3" points="16.81 47.08 17.99 47.24 18.52 49.49 17.43 49.33 16.81 47.08"/><polygon class="cls-2" points="5.17 46.05 6.59 46.14 7.06 48.26 5.77 48.16 5.17 46.05"/><polygon class="cls-2" points="3.37 45.61 4.79 45.69 5.26 47.83 3.95 47.71 3.37 45.61"/><polygon class="cls-2" points="6.56 46.18 7.98 46.29 8.49 48.54 7.17 48.41 6.56 46.18"/><polygon class="cls-2" points="8.32 46.49 9.74 46.57 10.21 48.69 8.92 48.59 8.32 46.49"/><polygon class="cls-2" points="10.94 46.65 12.14 46.81 12.67 49.06 11.58 48.88 10.94 46.65"/></g></g></g></g></svg>